<?xml version="1.0" standalone="no"?>
<!DOCTYPE svg PUBLIC "-//W3C//DTD SVG 20010904//EN"
 "http://www.w3.org/TR/2001/REC-SVG-20010904/DTD/svg10.dtd">
<svg version="1.0" xmlns="http://www.w3.org/2000/svg"
 width="498.000000pt" height="448.000000pt" viewBox="0 0 498.000000 448.000000"
 preserveAspectRatio="xMidYMid meet">

<g transform="translate(0.000000,448.000000) scale(0.100000,-0.100000)"
fill="#000000" stroke="none">
<path d="M2467 4066 c-48 -18 -71 -38 -91 -81 -35 -73 -13 -144 63 -206 l41
-32 0 -254 0 -253 45 0 45 0 0 253 0 254 49 41 c36 31 51 52 59 84 12 46 5 98
-19 136 -34 55 -125 83 -192 58z"/>
<path d="M2425 3165 c-68 -18 -133 -47 -215 -95 -200 -117 -329 -321 -344
-545 l-4 -60 -472 -3 -472 -2 -42 44 c-48 52 -93 65 -161 46 -62 -17 -97 -57
-102 -117 -7 -63 16 -116 59 -143 73 -45 140 -35 207 31 l41 39 480 0 c449 0
481 -1 486 -17 41 -132 109 -240 218 -347 124 -122 239 -185 366 -199 81 -10
217 15 292 53 69 34 227 148 307 222 l52 48 67 -26 c37 -14 83 -32 102 -39 19
-7 109 -45 200 -84 191 -83 270 -130 270 -164 0 -35 41 -98 87 -133 89 -68
228 -50 295 38 60 79 62 195 5 270 -48 63 -89 83 -167 83 -77 -1 -133 -26
-178 -81 l-31 -37 -43 20 c-24 12 -72 33 -108 47 -36 15 -74 31 -85 36 -104
46 -359 150 -367 150 -11 0 -10 4 17 140 17 82 16 237 -1 311 -6 28 -17 22
191 104 39 16 88 36 110 45 22 10 80 32 128 50 l88 33 22 -21 c87 -82 234 -64
297 34 77 122 -7 284 -148 284 -99 0 -164 -53 -192 -156 l-15 -59 -135 -53
c-74 -29 -186 -73 -248 -97 -62 -25 -118 -45 -125 -45 -8 0 -24 18 -36 41 -13
22 -45 67 -72 99 -72 87 -278 219 -398 256 -57 17 -160 17 -226 -1z"/>
<path d="M1173 3125 c-63 -27 -91 -112 -58 -175 45 -87 161 -95 234 -16 l24
26 307 0 307 0 58 43 57 42 -360 5 -360 5 -29 25 c-15 14 -30 28 -33 32 -9 12
-60 28 -88 28 -15 -1 -42 -7 -59 -15z"/>
<path d="M2480 1561 l0 -190 -39 -22 c-49 -27 -81 -83 -81 -141 0 -91 69 -158
164 -158 153 0 222 189 104 284 -18 14 -39 31 -45 37 -10 7 -13 59 -13 194 l0
185 -45 0 -45 0 0 -189z"/>
<path d="M4671 1414 c0 -11 3 -14 6 -6 3 7 2 16 -1 19 -3 4 -6 -2 -5 -13z"/>
<path d="M4651 1354 c0 -11 3 -14 6 -6 3 7 2 16 -1 19 -3 4 -6 -2 -5 -13z"/>
<path d="M330 1306 c0 -17 34 -86 42 -86 12 0 11 4 -17 51 -14 24 -25 40 -25
35z"/>
<path d="M381 1194 c0 -11 3 -14 6 -6 3 7 2 16 -1 19 -3 4 -6 -2 -5 -13z"/>
<path d="M470 1065 c0 -7 59 -65 67 -65 4 0 -8 16 -27 35 -33 35 -40 39 -40
30z"/>
<path d="M4443 1005 c-15 -13 -25 -25 -22 -25 3 0 19 11 35 25 16 14 26 25 22
25 -4 0 -20 -11 -35 -25z"/>
<path d="M620 930 c8 -5 20 -10 25 -10 6 0 3 5 -5 10 -8 5 -19 10 -25 10 -5 0
-3 -5 5 -10z"/>
<path d="M4138 813 c7 -3 16 -2 19 1 4 3 -2 6 -13 5 -11 0 -14 -3 -6 -6z"/>
<path d="M938 783 c6 -2 18 -2 25 0 6 3 1 5 -13 5 -14 0 -19 -2 -12 -5z"/>
<path d="M4038 783 c6 -2 18 -2 25 0 6 3 1 5 -13 5 -14 0 -19 -2 -12 -5z"/>
<path d="M998 773 c6 -2 18 -2 25 0 6 3 1 5 -13 5 -14 0 -19 -2 -12 -5z"/>
<path d="M3988 773 c6 -2 18 -2 25 0 6 3 1 5 -13 5 -14 0 -19 -2 -12 -5z"/>
<path d="M3903 753 c9 -2 25 -2 35 0 9 3 1 5 -18 5 -19 0 -27 -2 -17 -5z"/>
<path d="M3833 743 c9 -2 23 -2 30 0 6 3 -1 5 -18 5 -16 0 -22 -2 -12 -5z"/>
<path d="M3677 723 c18 -2 50 -2 70 0 21 2 7 4 -32 4 -38 0 -55 -2 -38 -4z"/>
<path d="M2433 693 c114 -2 300 -2 415 0 114 1 20 2 -208 2 -228 0 -322 -1
-207 -2z"/>
<path d="M1750 520 c-9 -6 -10 -10 -3 -10 6 0 15 5 18 10 8 12 4 12 -15 0z"/>
</g>
</svg>
